Coordinates
version=1
nRows=19
nColumns=36
inDegrees=yes

Units are S.I. units (second, meters, Newtons, ...)
If the header above contains a line with 'inDegrees', this indicates whether rotational values are in degrees (yes) or radians (no).

endheader
time	pelvis_tilt	pelvis_list	pelvis_rotation	pelvis_tx	pelvis_ty	pelvis_tz	hip_flexion_r	hip_adduction_r	hip_rotation_r	knee_angle_r	knee_angle_r_beta	ankle_angle_r	subtalar_angle_r	mtp_angle_r	hip_flexion_l	hip_adduction_l	hip_rotation_l	knee_angle_l	knee_angle_l_beta	ankle_angle_l	subtalar_angle_l	mtp_angle_l	lumbar_extension	lumbar_bending	lumbar_rotation	arm_flex_r	arm_add_r	arm_rot_r	elbow_flex_r	pro_sup_r	arm_flex_l	arm_add_l	arm_rot_l	elbow_flex_l	pro_sup_l
      1.75000000	    -22.50272675	     -1.00064073	     -1.04190479	     -0.40468938	      0.75942152	     -0.57047526	     91.25570850	     -5.96449199	      5.22047754	     99.28486074	      1.73284772	     21.04611470	    -16.77600346	     -7.42307666	     91.87782157	    -19.03560202	      2.51317441	     97.29544547	      1.69812587	     24.14696938	     -7.28736135	     -7.42307666	    -30.68834867	     -2.98060806	      6.81042503	     49.75601998	    -28.22711434	      4.17413121	    106.53352102	    112.31835480	     68.16500192	    -18.76990454	     38.21300532	    101.73155983	    108.81885473
      1.76000000	    -22.81853794	     -0.65468332	     -1.12996412	     -0.40484495	      0.74944057	     -0.56993938	     92.51036947	     -5.76177670	      5.79151512	    100.56711892	      1.75522734	     21.57188950	    -17.09430040	     -7.42466600	     93.06537833	    -19.35014932	      2.38618130	     98.59643097	      1.72083235	     24.76520294	     -6.94674387	     -7.42466600	    -31.85477385	     -3.16667426	      6.52611838	     58.98594572	    -29.03164101	      8.85727925	    104.63826618	    111.93671550	     73.25355085	    -18.32912490	     39.22241581	    101.41920233	    108.80197881
      1.77000000	    -23.49933686	     -0.52099446	     -1.01361681	     -0.40496365	      0.73960744	     -0.56956121	     93.79590817	     -5.62357915	      6.22900955	    101.61337969	      1.77348804	     22.76976226	    -17.23369247	     -7.42659614	     94.78820114	    -19.39336464	      2.61988031	     99.82960161	      1.74235524	     24.90529141	     -6.74061568	     -7.42659614	    -32.46314417	     -3.00453889	      6.22429765	     67.74259855	    -29.24436579	     13.29403133	    102.68096849	    111.44818316	     77.83439860	    -17.73481148	     39.59823009	    101.08074653	    108.86649344
      1.78000000	    -24.46265216	     -0.36097219	     -0.57957168	     -0.40517563	      0.73010000	     -0.56971786	     95.32438512	     -5.76225543	      6.78032332	    102.59708858	      1.79065700	     23.77331891	    -17.56628333	     -7.42732634	     96.71183040	    -18.97807432	      2.86215307	    100.88005049	      1.76068903	     24.78505644	     -6.59421954	     -7.42732634	    -32.56842609	     -2.82959400	      6.17025830	     75.40444007	    -29.52197445	     16.65803563	    101.12212696	    111.38916809	     82.45488658	    -16.42388561	     40.30319226	     99.77997557	    108.84187204
      1.79000000	    -25.09471861	     -0.34075661	     -0.25973306	     -0.40511608	      0.72228303	     -0.56953185	     96.47684233	     -5.66653156	      7.23610506	    103.52114509	      1.80678483	     24.48161364	    -17.59435154	     -7.42842160	     98.16388874	    -18.69781306	      3.20387268	    101.78207381	      1.77643231	     24.75020730	     -6.50835697	     -7.42842160	    -33.01379457	     -2.44757732	      5.93615258	     83.07942034	    -28.84391385	     20.16510237	     99.21299134	    111.29353101	     86.64312551	    -15.64590900	     40.28404102	     99.05215597	    108.84704251
      1.80000000	    -25.76981654	     -0.13871222	     -0.16510196	     -0.40466501	      0.71573115	     -0.56834302	     97.79022717	     -5.13934985	      7.90818354	    104.44749918	      1.82295276	     24.57653776	    -17.88097783	     -7.42909427	     99.35953375	    -18.81573010	      3.19963850	    102.47100642	      1.78845645	     24.82762614	     -6.32902297	     -7.42909427	    -33.20657236	     -2.51338141	      5.92191255	     89.49607261	    -27.71091599	     22.38838684	     97.42028156	    111.17705642	     90.72592984	    -14.59106220	     40.43601578	     97.79194974	    108.76043958
      1.81000000	    -26.05895394	     -0.08278069	     -0.19088148	     -0.40366668	      0.71137282	     -0.56663985	     98.59644856	     -4.40014835	      8.32956695	    105.26057757	      1.83714365	     23.97296133	    -18.68885571	     -7.43052434	     99.98847371	    -19.14993608	      3.24301789	    102.97111776	      1.79718504	     25.20754097	     -6.09677752	     -7.43052434	    -33.89712203	     -2.44062418	      5.93564756	     95.53869170	    -26.19294082	     24.32882876	     95.94554632	    110.82409490	     94.55206778	    -13.92038282	     40.21068928	     97.16486706	    108.67522088
      1.82000000	    -26.45839718	      0.06967744	     -0.21244916	     -0.40231875	      0.70801685	     -0.56528204	     99.39663941	     -3.73432960	      8.78763507	    105.92379398	      1.84871896	     23.53323841	    -19.23619687	     -7.43120284	    100.55358442	    -19.45943412	      3.08341321	    103.33844649	      1.80359614	     25.39852387	     -6.04302916	     -7.43120284	    -34.19863287	     -2.51927627	      6.00764499	    100.39800343	    -24.58908335	     25.32804849	     94.60814435	    110.61366202	     97.97681791	    -12.93603928	     40.10929932	     95.89865011	    108.51534045
      1.83000000	    -26.66367663	      0.02896632	     -0.07965866	     -0.40061076	      0.70605187	     -0.56485321	     99.71368214	     -3.39451198	      8.97459864	    106.32718464	      1.85575946	     22.82346366	    -20.38299346	     -7.43279375	    100.89886606	    -19.48507863	      3.08497418	    103.63428312	      1.80875946	     25.58396015	     -6.03742764	     -7.43279375	    -34.67114132	     -2.18591316	      5.97360596	    104.90015512	    -22.93551653	     26.52731231	     93.65513941	    110.24947771	    100.94673905	    -12.12542848	     39.52768017	     95.15600887	    108.33281257
      1.84000000	    -26.90586152	     -0.12543302	      0.14642819	     -0.39874965	      0.70469189	     -0.56481236	     99.87657443	     -3.25763945	      9.03676625	    106.59696947	      1.86046809	     22.63610993	    -21.07514739	     -7.43431363	    101.28946792	    -19.37318216	      3.18105996	    103.85899003	      1.81268133	     25.57384776	     -6.08520530	     -7.43431363	    -34.84247046	     -1.70904691	      5.96040905	    108.59084054	    -21.28648246	     27.28076821	     92.83827410	    109.92635675	    103.45085282	    -11.18433531	     38.89832940	     94.15777169	    108.15365657
      1.85000000	    -27.12801227	     -0.34465957	      0.44970377	     -0.39671731	      0.70412991	     -0.56476142	     99.87587335	     -3.24263590	      9.04401529	    106.74648665	      1.86307766	     22.71208547	    -21.49115942	     -7.43539393	    101.59679347	    -19.17658341	      3.32096633	    103.98952213	      1.81495955	     25.54685129	     -6.08310343	     -7.43539393	    -34.81860668	     -1.20353765	      5.91273529	    111.51965127	    -19.76169894	     27.65409614	     92.27021579	    109.70311257	    105.59663681	    -10.19004395	     38.26205936	     93.06942632	    108.00451100
      1.86000000	    -27.54889377	     -0.43477573	      0.70005799	     -0.39438890	      0.70444294	     -0.56429728	    100.00417821	     -3.15800347	      9.17185314	    106.77744998	      1.86361807	     22.79922178	    -21.64220395	     -7.43559926	    101.86542986	    -19.04921237	      3.29254749	    103.92944154	      1.81391094	     25.60770530	     -6.06654305	     -7.43559926	    -34.41081528	     -0.94562444	      5.77367735	    113.52078977	    -18.38348228	     27.43393113	     92.41573113	    109.66323505	    107.31337312	     -9.35516963	     37.64690579	     92.37111170	    107.89559409
      1.87000000	    -27.42360283	     -0.45646150	      1.02756845	     -0.39172662	      0.70666125	     -0.56378176	     99.52424472	     -3.17139957	      9.33536275	    106.77873145	      1.86364043	     22.69612969	    -21.99403631	     -7.43623094	    101.35266520	    -18.84629690	      3.15926237	    103.70785472	      1.81004352	     25.67303706	     -6.04452425	     -7.43623094	    -34.48580307	     -0.71063219	      5.62460364	    115.47478774	    -17.17153978	     27.48515921	     92.07495429	    109.57277405	    108.84413549	     -8.35518481	     37.00302737	     91.31198651	    107.77316903
      1.88000000	    -27.72621074	     -0.43990424	      1.16548479	     -0.38887038	      0.70960127	     -0.56296865	     99.41597356	     -2.99963362	      9.46725977	    106.58702642	      1.86029455	     22.61877444	    -22.07696470	     -7.43640817	    101.11487035	    -18.79290647	      3.01740842	    103.29979958	      1.80292162	     25.71563148	     -6.00027643	     -7.43640817	    -33.99783050	     -0.60874745	      5.58614814	    116.85033486	    -16.08861130	     27.25721533	     92.43331154	    109.56252076	    109.95914197	     -7.72904489	     36.55633462	     91.01621616	    107.71442988
      1.89000000	    -27.59165569	     -0.23161733	      1.45617024	     -0.38568359	      0.71427415	     -0.56276266	     98.82405511	     -3.09652160	      9.74303450	    106.37359397	      1.85656945	     22.16245193	    -22.37503426	     -7.43695089	    100.16777334	    -18.47525805	      2.66122214	    102.76251712	      1.79354427	     25.78504954	     -5.95969292	     -7.43695089	    -33.93587187	     -0.62266560	      5.41721199	    118.18976143	    -15.13173373	     26.87530208	     92.46851183	    109.48013498	    111.00505878	     -6.92465209	     35.99431028	     90.63570239	    107.62558700
      1.90000000	    -27.56799166	     -0.02874011	      1.61728333	     -0.38228651	      0.72000454	     -0.56264060	     98.19048312	     -3.09339551	      9.97007530	    105.92664740	      1.84876876	     21.51556111	    -22.85773380	     -7.43792678	     99.18638029	    -18.18451903	      2.31282467	    102.07217161	      1.78149547	     25.85552347	     -6.07568725	     -7.43792678	    -33.63773605	     -0.66863163	      5.37483280	    119.25360276	    -14.35712380	     26.58841772	     92.69943509	    109.34391503	    111.85956740	     -6.48083079	     35.79948798	     90.67524203	    107.57709262
      1.91000000	    -27.74618655	     -0.01220548	      1.73808677	     -0.37897769	      0.72592913	     -0.56257233	     97.64502811	     -3.09110650	      9.98470883	    105.35087633	      1.83871966	     21.26351924	    -22.98488190	     -7.43833932	     98.49388234	    -17.80433622	      2.26611559	    101.34990295	      1.76888950	     25.84624332	     -6.18796179	     -7.43833932	    -32.98309924	     -0.56445593	      5.52054296	    120.19475289	    -13.80245663	     26.34054144	     93.00843009	    109.28210813	    112.55976931	     -6.14691334	     35.64169437	     91.02695229	    107.58986510
      1.92000000	    -27.96152489	     -0.00903816	      1.80992307	     -0.37562497	      0.73237614	     -0.56243863	     97.03215271	     -3.04050805	      9.99642580	    104.62954427	      1.82613004	     21.15946954	    -22.98707031	     -7.43846342	     97.78595577	    -17.44278414	      2.23906953	    100.54083614	      1.75476862	     25.82546699	     -6.23370325	     -7.43846342	    -32.07421840	     -0.47078423	      5.70070797	    120.88865936	    -13.46273168	     26.21244968	     93.21677652	    109.26247370	    113.06506425	     -5.96411931	     35.57515961	     91.28940042	    107.61014874
      1.93000000	    -27.98385558	      0.18452401	      2.03472946	     -0.37216627	      0.74005238	     -0.56270787	     96.16694070	     -3.22277841	     10.17608718	    103.83743032	      1.81230505	     20.83470577	    -23.20404856	     -7.43884342	     96.66835927	    -16.72905934	      2.06307217	     99.58378022	      1.73806485	     25.75602722	     -6.70916419	     -7.43884342	    -31.52450553	     -0.46342328	      5.71989692	    121.97629280	    -13.40693559	     26.26085581	     93.66957167	    109.19866773	    113.89652758	     -6.01632937	     35.40362209	     92.18058265	    107.68607369
